<?xml version="1.0" encoding="UTF-8"?>
<svg id="_圖層_2" data-name="圖層 2" xmlns="http://www.w3.org/2000/svg" viewBox="0 0 21.07 20.98">
  <defs>
    <style>
      .cls-1 {
        fill: #fff;
      }
    </style>
  </defs>
  <g id="content">
    <path class="cls-1" d="M21.07,10.54C21.07,4.72,16.36,0,10.54,0S0,4.72,0,10.54c0,5.18,3.74,9.47,8.66,10.36v-7.8h-2.71v-3.14h2.71v-2.32c-.02-.22-.03-.44,0-.66,.16-2.09,1.97-3.65,4.06-3.49,.81,0,1.62,.04,2.43,.12v2.81h-1.67c-1.31,0-1.56,.62-1.56,1.53v2.01h2.58v3.14h-2.58v7.88c5.17-.67,9.17-5.08,9.17-10.44Z"/>
  </g>
</svg>