<?xml version="1.0" encoding="UTF-8"?>
<svg id="_圖層_2" data-name="圖層 2" xmlns="http://www.w3.org/2000/svg" viewBox="0 0 24.01 22.87">
  <defs>
    <style>
      .cls-1 {
        fill: #fff;
      }
    </style>
  </defs>
  <g id="content">
    <path class="cls-1" d="M11.97,0C18.64,0,24.01,4.35,24.01,9.76c0,2.63-1.3,4.95-3.34,6.77-3.3,3.26-8.99,6.56-9.58,6.32-.98-.39,.74-2.49,.03-3.4-.11-.14-.49-.11-1.19-.21C4.14,18.46,0,14.64,0,9.72,0,4.32,5.34,0,11.97,0h0ZM5.13,12.99h2.04c.35,0,.56-.28,.56-.63,0-.25-.18-.56-.63-.56h-1.65c-.14,0-.14-.14-.14-.63v-3.55c0-.32-.21-.63-.6-.63-.35,0-.6,.28-.6,.63v4.28c0,.95,.46,1.09,1.02,1.09Zm4.6-.49V7.62c0-.32-.25-.63-.63-.63-.32,0-.6,.28-.6,.63v4.88c0,.32,.25,.56,.63,.56,.32,0,.6-.25,.6-.56Zm5.76-.67V7.55c0-.32-.25-.56-.63-.56-.28,0-.6,.18-.6,.56v3.09l-2.04-2.84c-.28-.49-.63-.81-1.05-.81-.53,0-.56,.42-.56,1.02v4.49c0,.32,.25,.56,.6,.56,.32,0,.6-.21,.6-.56v-3.19l2.04,2.84c.46,.6,.56,.91,1.12,.91,.39,0,.53-.35,.53-1.23h0Zm3.93-2.42h-1.79v-1.02c0-.11,.03-.25,.21-.25h1.58c.39,0,.63-.21,.63-.6,0-.46-.35-.6-.67-.6h-2.04c-.63,0-.95,.42-.95,.98v3.97c0,.7,.28,1.09,.95,1.09h2.07c.46,0,.63-.28,.63-.63,0-.46-.35-.6-.63-.6h-1.54c-.14,0-.25-.11-.25-.21v-.98h1.86c.46,0,.53-.35,.53-.6,0-.35-.28-.56-.6-.56Z"/>
  </g>
</svg>