<?xml version="1.0" encoding="UTF-8"?>
<svg id="_圖層_2" data-name="圖層 2" xmlns="http://www.w3.org/2000/svg" viewBox="0 0 18.55 19.94">
  <defs>
    <style>
      .cls-1 {
        fill: #fff;
      }
    </style>
  </defs>
  <g id="content">
    <g id="_7935ec95c421cee6d86eb22ecd1368a9" data-name="7935ec95c421cee6d86eb22ecd1368a9">
      <path class="cls-1" d="M.62,0h1.79l1.16,3.55h.11L4.79,0h1.81l-2.07,5.2v3.69h-1.78v-3.53L.62,0ZM6.78,3.83c0-.52,.21-.94,.64-1.25,.43-.31,1-.46,1.73-.46,.66,0,1.2,.16,1.62,.49,.42,.33,.63,.75,.63,1.26v3.48c0,.58-.21,1.03-.62,1.36-.41,.33-.98,.49-1.7,.49s-1.25-.17-1.67-.51c-.42-.34-.63-.79-.63-1.37V3.83Zm1.64,3.62c0,.19,.06,.33,.17,.43,.11,.1,.28,.15,.49,.15s.39-.05,.51-.15c.13-.1,.19-.25,.19-.43V3.78c0-.15-.07-.27-.19-.36-.13-.09-.3-.14-.51-.14-.19,0-.35,.05-.47,.14-.12,.09-.18,.21-.18,.36v3.67h0ZM17.23,2.23v6.74h-1.6v-.74c-.29,.27-.6,.48-.92,.63-.32,.14-.63,.21-.93,.21-.37,0-.65-.1-.83-.3-.19-.2-.28-.5-.28-.9V2.23h1.6V7.39c0,.16,.03,.28,.1,.35,.07,.07,.18,.11,.32,.11,.12,0,.27-.05,.44-.14,.18-.09,.34-.22,.49-.36V2.23h1.6Zm-1.5,11.93c-.08-.09-.2-.13-.37-.13s-.31,.04-.39,.13c-.08,.09-.12,.23-.12,.44v.42h.99v-.42c0-.2-.04-.35-.12-.44Zm-4.71,3.16c.09,.04,.18,.05,.27,.05,.14,0,.24-.03,.3-.1,.07-.07,.1-.18,.1-.33v-2.43c0-.16-.04-.29-.12-.37-.08-.08-.2-.13-.35-.13-.08,0-.16,.02-.24,.05-.08,.03-.16,.08-.23,.15v2.94c.09,.08,.18,.14,.27,.17Zm7.4-5.14c0-1.17-1.2-2.12-2.68-2.12-2.11-.07-4.27-.1-6.47-.1-2.2,0-4.36,.03-6.47,.1C1.32,10.06,.12,11.01,.12,12.18,.04,13.1,0,14.03,0,14.95c0,.92,.04,1.85,.12,2.77,0,1.17,1.2,2.11,2.68,2.11,2.11,.07,4.27,.1,6.47,.1,2.2,0,4.36-.03,6.47-.1,1.48,0,2.68-.95,2.68-2.11,.09-.92,.13-1.85,.12-2.77,0-.92-.03-1.85-.12-2.77Zm-14.41,5.89v.07h-1.27v-5.6H1.44v-1.02h3.89v1.02h-1.31v5.53h0Zm4.51-4.77v4.84h-1.13v-.53c-.21,.2-.42,.35-.65,.45-.22,.1-.44,.15-.65,.15-.26,0-.46-.07-.59-.22-.13-.14-.2-.36-.2-.65v-4.11h1.13v3.71c0,.11,.02,.2,.07,.25,.05,.05,.12,.08,.23,.08,.08,0,.19-.03,.31-.1,.13-.07,.24-.15,.35-.26v-3.67h1.13v.07Zm4.33,1.15v2.68c0,.34-.09,.61-.26,.79-.18,.18-.43,.27-.76,.27-.22,0-.42-.04-.59-.11-.17-.07-.33-.18-.48-.33v.37h-1.14v-6.62h1.14v2.11c.15-.15,.31-.26,.48-.34,.17-.08,.34-.12,.52-.12,.36,0,.63,.1,.82,.31,.19,.21,.28,.51,.28,.9v.07h0Zm4.16,.15v1.23h-2.15v.84c0,.25,.04,.43,.11,.53,.07,.1,.2,.15,.38,.15s.32-.04,.39-.13c.07-.08,.11-.27,.11-.55v-.34h1.16v.43c0,.5-.14,.87-.42,1.12-.28,.25-.7,.38-1.26,.38-.5,0-.9-.13-1.19-.4-.29-.27-.43-.63-.43-1.1v-2.24c0-.42,.16-.76,.48-1.03,.32-.26,.73-.4,1.23-.4s.91,.12,1.19,.37c.28,.24,.41,.6,.41,1.06v.07h0Z"/>
    </g>
  </g>
</svg>