<?xml version="1.0" encoding="UTF-8"?>
<svg id="_圖層_2" data-name="圖層 2" xmlns="http://www.w3.org/2000/svg" viewBox="0 0 278.34 273.45">
  <defs>
    <style>
      .cls-1 {
        font-family: NotoSerifTC-SemiBold-90ms-RKSJ-H, 'Noto Serif TC';
        font-size: 35px;
        letter-spacing: .19em;
      }

      .cls-1, .cls-2, .cls-3 {
        fill: #fff;
      }

      .cls-4 {
        opacity: .5;
      }

      .cls-4, .cls-5 {
        stroke-width: .75px;
      }

      .cls-4, .cls-5, .cls-6 {
        fill: none;
        stroke: #fff;
        stroke-miterlimit: 10;
      }

      .cls-3 {
        font-family: CormorantGaramond-Medium, 'Cormorant Garamond';
        font-size: 20.27px;
      }

      .cls-7 {
        letter-spacing: -.05em;
      }

      .cls-8 {
        letter-spacing: 0em;
      }

      .cls-9 {
        fill: #ddb273;
      }

      .cls-6 {
        stroke-width: 4px;
      }
    </style>
  </defs>
  <g id="content">
    <g>
      <path class="cls-2" d="M270.74,63.05c-3.43,3.57-7.18,5.62-9.81,10.04-1.24,2.11-2.04,4.31-2.39,6.7-.17-3.22-.22-6.44-.15-9.66,1.55-1.89,3.3-3.78,4.97-5.45,1.63-1.7,3.78-2.95,5.74-4.27,1.37-.98,2.5-1.83,3.32-3.36,.67-1.26,2.24-5.02,1.2-6.52-1.04-1.49-1.98,.85-2.55,1.84-1.25,2.25-2.55,4.1-4.33,5.84-2.51,2.36-6.96,5.89-8.27,9.8,.06-1.57,.15-3.13,.27-4.69,.88-1.68,2.68-3.72,3.81-5.07,1.58-1.87,4.13-2.28,5.68-4.26,1.57-1.92,3.8-6.53,2.47-9.07-.72-1.35-.78,.28-1.12,1.26-.76,2.35-1.99,4.06-3.66,5.83-2.31,2.46-5.86,5.75-7.02,9.39,.17-1.84,.38-3.67,.64-5.5,.34-.76,.8-1.45,1.31-2.21,.89-1.28,1.21-2.44,1.27-4,.1-1.41-.17-2.65,.71-3.84,.53-.66,1.15-1.03,1.41-1.86,.29-.87,.28-1.86,.49-2.71,.47-1.84,1.24-4.11,.46-5.95-1.14,1.35-1.25,3.28-2.21,4.7-.83,1.22-2.1,1.57-2.81,2.96-.91,1.76-1.28,3.69-1.33,5.68-.05,2.57,.08,5.32,.23,7.92-.23,1.51-.43,3.03-.6,4.55-.18-.73-.2-1.48-.29-2.23-.14-1.33-.01-2.91-.37-4.18-.4-1.43-1.58-2-2.26-3.23-1.56-2.95-.37-6.44-2.4-9.44-.28,1.03-.17,2.25-.28,3.29-.47,4.23-.03,7.02,2.46,10.49,1.27,1.73,2.34,3.51,3.08,5.56l.02,.04c-.3,2.8-.49,5.62-.59,8.44-.12-.92-.01-1.77-.62-2.74-.95-1.58-1-2.16-1.45-4-.42-1.91-1.54-3.08-3.12-4.07-2.37-1.36-2.6-2.61-3.26-5.39-.68-2.66-1.67-5.18-2.41-7.83-.22,1.67,.26,3.38,.37,5.01,.53,5.56,.69,9.02,4.87,13.03,2.09,2.01,4.64,4.14,5.57,6.98-.07,2.59-.05,5.19,.05,7.8-.05-.12-.09-.25-.14-.37-1.15-2.89-2.53-6.25-4.88-8.15-4.25-3.45-5.97-9.81-10.35-13.11-.29,1.62,.69,3.31,1.43,4.72,2.37,4.63,3.78,9.29,7.7,12.78,1.94,1.75,4.89,3.87,6.35,6.32,.11,1.86,.25,3.72,.44,5.58-.49-.75-.97-1.48-1.54-2.18-1.33-1.71-2.6-2.19-4.24-3.4-1.41-.98-1.5-2.32-2.19-3.79-1.69-3.63-6.26-4.56-9.13-6.91,.62,1.02,1.63,1.57,2.45,2.47,3.11,3.24,3.85,8.32,8.01,10.61,1.81,1,5.22,1.98,6.71,3.8,.06,.56,.12,1.12,.18,1.68,.22,1.83,.49,3.66,.79,5.48-.41-.64-.87-1.18-1.39-1.77-1.02-1.2-1.88-2.69-2.97-3.75-1.42-1.45-3.3-1.46-4.86-2.57-3.81-2.68-6.15-8.04-10.36-9.9,.27,1.77,.87,3.74,1.75,5.28,1.06,1.96,3.06,3.25,4.61,4.72,1.71,1.66,3.22,3.21,5.48,4,3.05,1.04,5.49,2.42,7.85,4.64,.32,1.86,.69,3.72,1.1,5.57-.4-.46-.84-.86-1.37-1.32-2.27-2.04-3.5-4.61-6.53-5.5-3.83-1.13-7.32-3.25-11.14-4.33,.5,1.59,2.08,2.57,3.26,3.55,2.14,1.78,4.38,3.89,6.98,4.89,2.09,.78,4.42,.38,6.41,1.43,.99,.5,1.68,1.37,2.55,2.07,.57,2.5,1.22,4.97,1.93,7.43,.95,3.26,2.43,6.72,3.78,9.98,.36,.05,.23,.06,.59,.11-1.28-3.12-2.51-6.25-3.51-9.52-.84-2.75-1.57-5.53-2.2-8.34,.3-.48,.81-.85,1.24-1.23,2.4-1.98,5.17-3.04,7.73-4.65,4.46-2.73,6.26-7.27,7.91-12.19-2.73,3.26-7.35,4.18-10.35,7.28-2.77,2.84-5.35,6.56-6.6,10.49-.42-1.91-.8-3.83-1.14-5.76,.39-.81,1.59-1.44,2.13-2.22,.91-1.21,1.45-3.14,2.69-4.02,1.09-.78,2.68-.57,3.9-1.08,2.86-1.15,7.19-6.4,6.79-9.86-1.5,.72-2.43,2.28-3.57,3.49-3.03,2.98-7.73,3.64-10.09,7.39-.9,1.49-1.78,3.5-2,5.42-.29-1.73-.54-3.47-.76-5.21-.02-.15-.04-.31-.05-.46,.37-.46,.86-.77,1.29-1.17,2.54-2.31,4.45-4.21,7.4-6.04,3.38-2.13,6.16-9.08,5.35-13.2-1.12,1.08-1.95,2.56-2.72,3.91-2.3,3.97-6.62,5.17-8.82,9.29-.68,1.28-2.14,4.01-2.62,6.17-.24-2.14-.44-4.29-.57-6.45,.7-1.05,1.79-1.51,2.68-2.37,1.71-1.61,1.99-3.88,3.29-5.73,1.19-1.64,2.71-2.3,4.28-3.39,3.41-2.43,7.37-7.16,5.64-11.56-.99,1.94-2.24,3.77-3.74,5.32Z"/>
      <g>
        <path class="cls-9" d="M111.61,151.68v22.57c0,.55-1.87,1.76-4.02,1.76h-.77v-38.54c-1.49,1.1-3.03,2.04-4.51,2.81l-.66-.61c3.47-3.41,7.16-9.14,9.25-15.36l6.88,2.53c-.22,.61-.94,1.1-2.15,.99-.44,.72-.88,1.38-1.38,2.04h6.99l2.42-3.25s2.86,2.31,4.62,3.96c-.11,.61-.72,.88-1.49,.88h-13.76c-1.71,2.15-3.63,3.96-5.62,5.51l4.46,1.98h8.92l2.2-2.42,4.35,3.85c-.39,.39-1.1,.83-1.98,.99v11.12c-.11,.22-1.93,1.32-3.91,1.32h-.94v-2.15h-8.92Zm0-11.12v3.91h8.92v-3.91h-8.92Zm8.92,9.52v-4.02h-8.92v4.02h8.92Zm-5.89-17.62c9.63,.72,5.95,7.49,2.31,4.9-.22-1.65-1.54-3.52-2.81-4.57l.5-.33Zm24.11,24.72c-.33,.39-1.1,.88-2.09,1.05v12.88c-.06,.39-2.31,1.32-3.8,1.32h-.77v-2.97h-9.3v2.26c0,.44-1.98,1.43-3.8,1.43h-.66v-19.21l4.73,2.04h8.53l2.26-2.48,4.9,3.69Zm-15.97,.39v4.29h9.3v-4.29h-9.3Zm9.3,10.29v-4.4h-9.3v4.4h9.3Zm15.25-41.46s3.19,2.37,5.07,4.18c-.11,.61-.66,.88-1.38,.88h-17.18c-2.31,2.81-5.06,4.9-7.82,6.39l-.72-.5c2.48-3.03,5.01-7.93,6.5-12.99l6.72,2.7c-.22,.61-.94,1.05-2.15,.88-.39,.66-.83,1.32-1.27,1.93h9.52l2.7-3.47Zm-1.54,9.96l4.57,4.24c-.44,.39-1.27,.83-2.09,.99v28.68c0,3.47-1.05,5.34-6.28,5.67,0-1.38-.28-2.31-.77-3.08-.55-.77-1.76-1.49-3.69-1.82v-.72s3.03,.17,4.79,.17c.77,0,.99-.17,.99-.72v-18.11h-9.03v.38c0,.39-2.15,1.49-4.13,1.49h-.66v-16.74l5.06,2.15h9.41l1.82-2.59Zm-11.51,4.18v3.91h9.03v-3.91h-9.03Zm9.03,9.52v-4.02h-9.03v4.02h9.03Zm-7.05-17.84c10.13,.44,6.39,7.76,2.53,5.07-.28-1.65-1.65-3.63-3.03-4.62l.5-.44Z"/>
        <path class="cls-9" d="M164.78,151.9l-.39-.72c10.13-5.78,20.31-17.62,22.74-26.43l8.64,2.09c-.22,.72-.94,1.05-2.53,1.21,4.73,7.82,14.2,12.88,23.67,15.97l-.11,.83c-2.48,.66-4.07,2.86-4.51,4.96-9.19-4.57-16.63-11.56-20.04-21.09-4.96,9.25-15.69,18.61-27.47,23.18Zm21.91-6.94c-.11,.72-.5,1.32-1.82,1.49v5.62c-.17,8.81-2.59,18.99-18.5,23.89l-.5-.72c12.11-5.84,13.76-15.03,13.76-23.23v-7.71l7.05,.66Zm16.24-.05c-.17,.77-.61,1.32-2.04,1.54v27.91c0,.5-2.37,1.6-4.35,1.6h-.99v-31.77l7.38,.72Z"/>
      </g>
      <text class="cls-1" transform="translate(48 111.67)"><tspan x="0" y="0">公司</tspan></text>
      <text class="cls-3" transform="translate(71.7 205.45)"><tspan x="0" y="0">ABOUT COM</tspan><tspan class="cls-7" x="119.68" y="0">P</tspan><tspan class="cls-8" x="129.75" y="0">ANY</tspan></text>
      <path class="cls-4" d="M139.34,263.95c.79-.04,1.59-.09,2.39-.15,38.78-2.79,72.45-22.02,94.67-50.4"/>
      <path class="cls-4" d="M112.68,13.1c-.78,.16-1.56,.34-2.34,.52C72.41,22.34,42.15,46.93,24.67,79.03"/>
      <path class="cls-5" d="M212.46,25.83C188.31,9.26,158.63,.36,127.13,2.39,52.46,7.22-4.16,71.66,.66,146.33c.7,10.84,2.66,21.3,5.72,31.24,0,0,7.63,26.09,25.08,46.38,27.34,31.8,68.09,51.75,113.14,48.84,74.67-4.83,131.29-69.27,126.46-143.94"/>
      <g>
        <path class="cls-2" d="M227.7,59.19s-.01-.03-.02-.05h0s.01,.03,.02,.05Z"/>
        <path class="cls-2" d="M221.39,55.53c.15,.1,.29,.21,.42,.33,.59,.52,1.07,1.15,1.63,1.7,.56,.55,1.26,1.03,2.04,1.09,.31,.03,.63-.02,.94,.04,.34,.06,.71,.25,.89,.55-.08-.24-.17-.48-.24-.72-.09-.33-.15-.64-.33-.94-.35-.57-.91-.97-1.46-1.33-.79-.53-1.64-.94-2.47-1.39-2.96-1.58-3.59-3.49-4.75-6.5-.32-.89-.85-1.77-.99-2.73,.82,1.36,1.77,2.61,2.56,3.99,.8,1.45,1.13,2.11,2.66,2.5,1.03,.3,1.84,.78,2.37,1.78,.54,.95,.66,1.27,1.43,2,.49,.45,.56,.94,.77,1.43-.39-1.59-.72-3.19-.99-4.8-.75-1.05-1.62-1.87-2.6-2.64-1.93-1.54-2.61-3.03-3.01-5.46-.1-.6-.35-1.26-.36-1.88,1.6,1.36,1.48,3.48,2.81,4.89,.57,.58,1.32,.71,1.77,1.45,.39,.65,.57,1.55,.86,2.27,.17,.41,.29,.82,.51,1.2-.14-.87-.27-1.75-.38-2.63-.49-1.43-1-2.94-1.37-4.38-.28-1.12-.38-2.25-.14-3.37,.18-.88,.83-1.28,1.1-2.09,.32-.94,.08-2.04,.5-2.96,.72,.91,.65,2.29,.67,3.39,.01,.51,.17,1.06,.15,1.59-.02,.5-.3,.8-.5,1.26-.3,.8,.04,1.45,.2,2.25,.21,.88,.21,1.58-.08,2.43-.17,.5-.32,.96-.39,1.44,.14,1.06,.31,2.11,.5,3.16,.08-2.21,1.55-4.6,2.45-6.33,.65-1.25,1.07-2.39,1.13-3.82,.04-.61-.18-1.52,.43-.88,1.14,1.21,.61,4.13,.04,5.44-.56,1.34-1.91,1.97-2.51,3.26-.42,.93-1.11,2.34-1.33,3.42,.18,.89,.37,1.77,.58,2.66,.12-2.38,2.05-5.05,3.08-6.75,.72-1.25,1.16-2.48,1.51-3.93,.17-.64,.32-2.09,1.14-1.42,.81,.67,.53,3.01,.35,3.82-.22,.98-.71,1.63-1.33,2.39-.01,.02-.03,.03-.04,.05-.88,1.03-1.86,2.05-2.49,3.23-.4,.7-.78,1.41-1.13,2.13-.19,.37-.35,.76-.54,1.13-.28,.54-.11,1.23,.05,1.78,.05,.18,.11,.37,.18,.55l.02,.2c-.02-1.21,.61-2.42,1.62-3.09,.48-.32,1.05-.54,1.39-1.01,.36-.5,.38-1.17,.68-1.71,.25-.46,.67-.78,1.05-1.14,.38-.36,.73-.8,.75-1.32,.28,.18,.4,.54,.38,.87-.02,.33-.15,.65-.28,.95-.43,1-.86,2.01-1.28,3.01-.4,.93-.83,1.9-1.65,2.49-.47,.34-1.04,.52-1.5,.88-.38,.3-.62,.74-.5,1.22,.18,.7,.57,1.41,.88,2.07,.66,1.37,1.43,2.69,2.31,3.92-.15,.13-.39,.1-.55-.01s-.26-.29-.36-.47c-.75-1.36-1.44-2.74-2.16-4.12-.26-.51-.55-1.03-.78-1.56-.12-.05-.24-.08-.37-.09-.34,0-.67,.16-.99,.28-.28,.11-.58,.18-.88,.22-.2,.03-.4,.08-.61,.06-.14-.01-.29-.03-.43-.05-.15-.03-.27-.11-.41-.18-.15-.07-.29-.15-.41-.27-.29-.27-.52-.59-.81-.84-.42-.36-.95-.56-1.42-.86-.66-.42-.82-1.09-1.26-1.68-.16-.22-.28-.45-.45-.66-.21-.25-.41-.51-.62-.76-.19-.23-.37-.46-.61-.63-.26-.19-.56-.29-.86-.4,1.34,.07,2.71,.3,3.83,1.08Z"/>
      </g>
      <path class="cls-6" d="M212.49,25.98c-.66-.45-1.33-.9-2-1.35C177.87,2.99,139.4-2.71,104.56,5.73"/>
      <path class="cls-2" d="M231.16,83.22c-.2-.2-.41-.4-.61-.6-.57-.55-1.15-1.09-1.74-1.61-.52-.45-1.04-.9-1.59-1.32-.35-.27-.72-.5-1.05-.79-.02,0-.12-.09-.15-.1-.06-.04-.12-.08-.18-.12-.12-.08-.24-.17-.35-.27-.08-.07-.16-.15-.2-.24-.1-.21,0-.41,.02-.62,0-.24,.04-.47,.04-.71,0-.43,.04-.86,.05-1.29,.02-.79,.13-1.92-.23-2.65-.15-.3-.39-.57-.55-.86-.2-.36-.4-.73-.57-1.11-.34-.76-.58-1.56-.6-2.4-.03-1.26,.13-2.48-.05-3.73-.14-.96-.41-1.82-.91-2.66-.34-.56-.84-1.35-1.36-1.75-.11,.64,.16,1.54,.25,2.2,.07,.59,.24,1.24,.22,1.83-.06,1.36-.78,2.67-.53,4.04,.14,.73,.45,1.39,.68,2.08,.02,.07,.04,.14,.07,.21,.25,.84,.26,1.73,.26,2.6,0,1.06-.03,2.15,.32,3.15,.06,.18,.16,.35,.26,.52-.29-.13-.57-.27-.83-.48-.8-.67-1.3-1.62-1.74-2.54-.64-1.33-1.1-2.74-1.61-4.12-1.8-4.91-4.6-6.3-9-8.74-1.31-.69-2.55-1.7-4-2.12,1.92,1.57,3.65,3.29,5.6,4.82,2.06,1.56,3.01,2.2,3.28,4.65,.24,1.66,.81,3.01,2.23,4.05,1.35,1.04,1.82,1.29,2.78,2.65,.58,.85,1.33,1.07,2.04,1.5-2.37-.94-4.76-1.8-7.19-2.57l-.02-.03c-1.43-1.36-2.52-2.88-3.48-4.56-1.96-3.32-4.11-4.69-7.78-5.83-.9-.29-1.86-.82-2.82-.96,1.75,2.76,5.05,3.04,6.93,5.4,.77,1.01,.81,2.19,1.85,3.04,.92,.75,2.27,1.22,3.32,1.82,.59,.35,1.2,.63,1.74,1.05-1.32-.41-2.64-.8-3.98-1.16-2.1-1.07-4.32-2.18-6.46-3.06-1.67-.68-3.39-1.07-5.18-.95-1.4,.09-2.15,1-3.46,1.25-1.52,.29-3.16-.33-4.68,.13,1.24,1.31,3.4,1.5,5.09,1.77,.78,.13,1.6,.5,2.42,.57,.78,.08,1.31-.29,2.05-.49,1.31-.29,2.23,.38,3.43,.81,1.31,.52,2.38,.67,3.76,.4,.81-.15,1.54-.28,2.3-.29,1.6,.45,3.19,.94,4.77,1.46-3.43-.36-7.43,1.39-10.3,2.4-2.07,.73-3.92,1.13-6.14,.91-.94-.07-2.31-.61-1.45,.47,1.62,2.02,6.23,1.84,8.39,1.24,2.19-.57,3.46-2.53,5.58-3.16,1.53-.45,3.86-1.2,5.57-1.31,1.33,.46,2.66,.96,3.97,1.47-3.7-.33-8.23,2.07-11.09,3.29-2.09,.84-4.09,1.25-6.4,1.47-1.03,.12-3.3,.04-2.44,1.44,.86,1.4,4.53,1.47,5.82,1.37,1.57-.12,2.68-.75,3.98-1.53,.03-.02,.05-.03,.08-.05,1.77-1.13,3.56-2.43,5.53-3.14,1.17-.46,2.35-.89,3.54-1.29,.61-.2,1.24-.37,1.85-.59,.86-.3,1.83,.06,2.63,.42-.11,.03-.23,.07-.32,.11-.6,.23-1.2,.58-1.68,1-.71,.6-1.34,1.3-2.11,1.82-1.25,.85-2.77,1.16-4.22,1.59-3.75,1.11-7.23,3.14-10.05,5.85,3.43-.56,6.84-1.25,10.25-1.95,1.14-.23,2.29-.47,3.34-.96,2.38-1.13,3.93-3.44,5.37-5.64,.26-.41,.54-.72,1.04-.86,.04-.01,.08-.03,.11-.05,1.59,.98,3.02,2.21,4.41,3.46,.16,.15,.32,.29,.49,.44,.36,.33,.72,.66,1.07,1,.15,.14,.59,.81,.78,.79,.16-.02,.27-.19,.26-.35-.01-.36-.43-.68-.66-.91Z"/>
    </g>
  </g>
</svg>