<?xml version="1.0" encoding="UTF-8"?>
<svg id="_圖層_2" data-name="圖層 2" xmlns="http://www.w3.org/2000/svg" viewBox="0 0 66.08 67.62">
  <defs>
    <style>
      .cls-1 {
        fill: #9e7c4a;
      }
    </style>
  </defs>
  <g id="content">
    <path class="cls-1" d="M59.39,56.74s4.12,3.23,6.69,5.73c-.15,.81-.88,1.18-1.91,1.18h-31.46v1.98c0,.44-2.06,1.98-5.07,1.98h-1.03v-26.39c-2.21,2.35-4.7,4.48-7.28,6.25v7.35c-.15,.51-3.01,1.98-5.15,1.98h-.88v-5.51H6.03v6.91c0,.51-1.98,2.06-5,2.06H0V4.12l6.98,2.94h5.59l3.16-3.6,6.69,5.37c-.44,.59-1.62,1.25-3.09,1.54V45.64c4.7-6.25,8.53-14.99,10.22-21.02l4.78,1.4c-.07-1.18-.29-2.06-.81-2.57-.59-.51-1.54-1.03-3.68-1.32v-1.1s3.31,.29,4.48,.29c.96,0,1.18-.37,1.18-1.18v-3.31c-2.65,1.4-5.73,3.16-9.56,5.07-.29,.88-.88,1.47-1.54,1.69l-2.65-5.88c2.57-.44,7.94-1.54,13.74-2.94V5.59h-13.38l-.66-2.13h13.3L37.63,.15l6.69,5-.51-1.69h11.91l2.94-3.45,6.91,5.22c-.44,.59-1.62,1.25-3.09,1.47v14.48c0,3.6-.88,5.51-7.13,6.03-.07-1.25-.29-2.35-.88-2.94-.59-.51-1.54-1.1-3.6-1.4v-1.1s3.31,.29,4.41,.29c.96,0,1.18-.37,1.18-1.18v-4.48c-2.43,1.32-5.37,2.87-8.82,4.7-.29,.88-.96,1.47-1.69,1.69l-2.57-5.88c2.5-.37,7.57-1.4,13.08-2.57V5.59h-11.98l-.07-.15c-.51,.44-1.62,1.03-3.01,1.32v13.6c0,3.38-.74,5.22-6.47,5.81l3.53,1.03c-.29,.88-.88,1.4-2.65,1.4-.81,1.47-1.76,3.09-2.94,4.78l.73,.29h12.64c-.44-.15-.88-.44-1.32-.96-.44-2.13-1.32-5.44-3.38-7.57l.73-.66c9.41,2.35,8.23,8.23,5.51,9.19h6.84l3.68-4.63s4.04,3.16,6.54,5.59c-.15,.81-.88,1.18-1.84,1.18h-14.04v7.06h4.41l3.38-4.34s3.9,3.01,6.25,5.29c-.15,.81-.88,1.18-1.91,1.18h-12.13v7.13h4.41l3.38-4.34s3.82,3.01,6.25,5.29c-.22,.81-.96,1.18-1.98,1.18h-12.05v7.28h6.69l3.75-4.78ZM6.03,9.19V27.93h7.28V9.19H6.03Zm7.28,39.98V30.06H6.03v19.11h7.28ZM23.89,7.2c11.47-.66,10.22,8.45,5.95,6.39-1.32-1.69-3.31-4.04-6.39-5.37l.44-1.03Zm8.82,28.59v7.06h10.22v-7.06h-10.22Zm10.22,9.19h-10.22v7.13h10.22v-7.13Zm-10.22,16.54h10.22v-7.28h-10.22v7.28ZM44.76,7.28c11.25-.96,10,8.16,5.73,6.1-1.25-1.69-3.31-3.97-6.25-5.22l.51-.88Z"/>
  </g>
</svg>